<svg width="28" height="28" viewBox="0 0 28 28" fill="none" xmlns="http://www.w3.org/2000/svg">
<g filter="url(#filter0_d_8_861)">
<path d="M12.0224 21.3588L11.2136 22.0328C7.88773 20.8793 5.5 17.7185 5.5 14C5.5 11.7263 6.39274 9.6611 7.84682 8.13582L8.87827 10.0645C9.18801 10.6437 9.76238 11.0339 10.4149 11.1084L11.7779 11.2641C12.2551 11.3186 12.7121 11.4879 13.1097 11.7574L13.1853 11.8086C13.5645 12.0656 13.6871 12.5682 13.4688 12.9709C13.0243 13.7909 13.2871 14.8148 14.0715 15.3193L14.5494 15.6267C14.9555 15.8879 15.117 16.402 14.9331 16.8485L13.9658 19.1973C13.7927 19.6177 14.225 20.0322 14.6378 19.8416L16.6006 18.9352C17.1058 18.702 17.5567 18.3659 17.9245 17.9485L18.7516 17.0101C18.7622 16.998 18.7742 16.9873 18.7874 16.9781L19.4526 16.5155C19.5948 16.4166 19.7089 16.2824 19.7837 16.1261L20.4723 14.6867C20.6966 14.2178 20.5243 13.6553 20.0759 13.3924L16.8386 11.495C16.4455 11.2646 15.9854 11.1753 15.5347 11.242L15.0083 11.3198C14.8893 11.3374 14.7679 11.3115 14.6665 11.2469L13.4374 10.4637L13.2718 10.3109C12.7169 9.79894 12.9077 8.88031 13.6206 8.63169L13.7992 8.56939L14.8238 8.21053L15.5517 7.95816L18.644 6.87962C19.5231 7.45416 20.2893 8.18711 20.9021 9.03793L20.3812 9.95289C20.1441 10.3695 20.0645 10.8574 20.1568 11.3278L20.1825 11.4583C20.2896 12.0036 20.8207 12.357 21.365 12.2452L22.2771 12.0577C22.4229 12.6815 22.5 13.3318 22.5 14C22.5 18.0589 19.655 21.4534 15.8503 22.298L14.9415 21.2859C14.7256 21.0455 14.4067 20.9242 14.0855 20.9604L12.5506 21.1333C12.3562 21.1552 12.1726 21.2336 12.0224 21.3588ZM14 24C19.5228 24 24 19.5228 24 14C24 8.47715 19.5228 4 14 4C8.47715 4 4 8.47715 4 14C4 19.5228 8.47715 24 14 24Z" fill="url(#paint0_linear_8_861)"/>
</g>
<defs>
<filter id="filter0_d_8_861" x="-2" y="-2" width="32" height="32" filterUnits="userSpaceOnUse" color-interpolation-filters="sRGB">
<feFlood flood-opacity="0" result="BackgroundImageFix"/>
<feColorMatrix in="SourceAlpha" type="matrix" values="0 0 0 0 0 0 0 0 0 0 0 0 0 0 0 0 0 0 127 0" result="hardAlpha"/>
<feOffset/>
<feGaussianBlur stdDeviation="2"/>
<feComposite in2="hardAlpha" operator="out"/>
<feColorMatrix type="matrix" values="0 0 0 0 0.2 0 0 0 0 0.6 0 0 0 0 1 0 0 0 0.7 0"/>
<feBlend mode="normal" in2="BackgroundImageFix" result="effect1_dropShadow_8_861"/>
<feBlend mode="normal" in="SourceGraphic" in2="effect1_dropShadow_8_861" result="shape"/>
</filter>
<linearGradient id="paint0_linear_8_861" x1="14" y1="4" x2="14" y2="24" gradientUnits="userSpaceOnUse">
<stop stop-color="#3399FF"/>
<stop offset="1" stop-color="#F95D8F"/>
</linearGradient>
</defs>
</svg>
