<svg width="16" height="16" viewBox="0 0 16 16" fill="none" xmlns="http://www.w3.org/2000/svg">
<path d="M3.95721 2.54289C3.56668 2.15237 2.93352 2.15237 2.54299 2.54289C2.15247 2.93342 2.15247 3.56658 2.54299 3.95711L6.58584 7.99995L2.54289 12.0429C2.15237 12.4334 2.15237 13.0666 2.54289 13.4571C2.93342 13.8476 3.56658 13.8476 3.95711 13.4571L8.00005 9.41416L12.043 13.4571C12.4335 13.8476 13.0667 13.8476 13.4572 13.4571C13.8477 13.0666 13.8477 12.4334 13.4572 12.0429L9.41426 7.99995L13.4571 3.95712C13.8476 3.56659 13.8476 2.93343 13.4571 2.54291C13.0666 2.15238 12.4334 2.15238 12.0429 2.54291L8.00005 6.58574L3.95721 2.54289Z" fill="#3399FF"/>
</svg>
